<svg id="visual" viewBox="0 0 900 450" width="900" height="450" xmlns="http://www.w3.org/2000/svg" xmlns:xlink="http://www.w3.org/1999/xlink" version="1.1"><rect x="0" y="0" width="900" height="450" fill="#121212"></rect><path d="M0 329L129 336L257 275L386 307L514 306L643 288L771 298L900 286L900 451L771 451L643 451L514 451L386 451L257 451L129 451L0 451Z" fill="#1e1e1e"></path><path d="M0 316L129 357L257 316L386 297L514 323L643 311L771 339L900 295L900 451L771 451L643 451L514 451L386 451L257 451L129 451L0 451Z" fill="#1b1b1b"></path><path d="M0 370L129 336L257 332L386 341L514 375L643 362L771 331L900 335L900 451L771 451L643 451L514 451L386 451L257 451L129 451L0 451Z" fill="#181818"></path><path d="M0 400L129 390L257 405L386 376L514 388L643 371L771 378L900 387L900 451L771 451L643 451L514 451L386 451L257 451L129 451L0 451Z" fill="#151515"></path><path d="M0 410L129 415L257 426L386 394L514 400L643 415L771 421L900 421L900 451L771 451L643 451L514 451L386 451L257 451L129 451L0 451Z" fill="#121212"></path></svg>