<svg id="visual" viewBox="0 0 675 900" width="675" height="900" xmlns="http://www.w3.org/2000/svg" xmlns:xlink="http://www.w3.org/1999/xlink" version="1.1"><path d="M0 82L10.2 89.5C20.3 97 40.7 112 61.2 125.5C81.7 139 102.3 151 122.8 161.5C143.3 172 163.7 181 184 184C204.3 187 224.7 184 245.2 179.5C265.7 175 286.3 169 306.8 163C327.3 157 347.7 151 368.2 158.5C388.7 166 409.3 187 429.8 205C450.3 223 470.7 238 491 217C511.3 196 531.7 139 552.2 125.5C572.7 112 593.3 142 613.8 146.5C634.3 151 654.7 130 664.8 119.5L675 109L675 0L664.8 0C654.7 0 634.3 0 613.8 0C593.3 0 572.7 0 552.2 0C531.7 0 511.3 0 491 0C470.7 0 450.3 0 429.8 0C409.3 0 388.7 0 368.2 0C347.7 0 327.3 0 306.8 0C286.3 0 265.7 0 245.2 0C224.7 0 204.3 0 184 0C163.7 0 143.3 0 122.8 0C102.3 0 81.7 0 61.2 0C40.7 0 20.3 0 10.2 0L0 0Z" fill="#54aa50"></path><path d="M0 244L10.2 244C20.3 244 40.7 244 61.2 250C81.7 256 102.3 268 122.8 287.5C143.3 307 163.7 334 184 331C204.3 328 224.7 295 245.2 278.5C265.7 262 286.3 262 306.8 260.5C327.3 259 347.7 256 368.2 272.5C388.7 289 409.3 325 429.8 340C450.3 355 470.7 349 491 316C511.3 283 531.7 223 552.2 206.5C572.7 190 593.3 217 613.8 229C634.3 241 654.7 238 664.8 236.5L675 235L675 107L664.8 117.5C654.7 128 634.3 149 613.8 144.5C593.3 140 572.7 110 552.2 123.5C531.7 137 511.3 194 491 215C470.7 236 450.3 221 429.8 203C409.3 185 388.7 164 368.2 156.5C347.7 149 327.3 155 306.8 161C286.3 167 265.7 173 245.2 177.5C224.7 182 204.3 185 184 182C163.7 179 143.3 170 122.8 159.5C102.3 149 81.7 137 61.2 123.5C40.7 110 20.3 95 10.2 87.5L0 80Z" fill="#3d9a3a"></path><path d="M0 325L10.2 335.5C20.3 346 40.7 367 61.2 370C81.7 373 102.3 358 122.8 376C143.3 394 163.7 445 184 449.5C204.3 454 224.7 412 245.2 397C265.7 382 286.3 394 306.8 397C327.3 400 347.7 394 368.2 412C388.7 430 409.3 472 429.8 482.5C450.3 493 470.7 472 491 434.5C511.3 397 531.7 343 552.2 323.5C572.7 304 593.3 319 613.8 332.5C634.3 346 654.7 358 664.8 364L675 370L675 233L664.8 234.5C654.7 236 634.3 239 613.8 227C593.3 215 572.7 188 552.2 204.5C531.7 221 511.3 281 491 314C470.7 347 450.3 353 429.8 338C409.3 323 388.7 287 368.2 270.5C347.7 254 327.3 257 306.8 258.5C286.3 260 265.7 260 245.2 276.5C224.7 293 204.3 326 184 329C163.7 332 143.3 305 122.8 285.5C102.3 266 81.7 254 61.2 248C40.7 242 20.3 242 10.2 242L0 242Z" fill="#228b22"></path><path d="M0 523L10.2 560.5C20.3 598 40.7 673 61.2 676C81.7 679 102.3 610 122.8 610C143.3 610 163.7 679 184 673C204.3 667 224.7 586 245.2 556C265.7 526 286.3 547 306.8 574C327.3 601 347.7 634 368.2 643C388.7 652 409.3 637 429.8 647.5C450.3 658 470.7 694 491 704.5C511.3 715 531.7 700 552.2 676C572.7 652 593.3 619 613.8 590.5C634.3 562 654.7 538 664.8 526L675 514L675 368L664.8 362C654.7 356 634.3 344 613.8 330.5C593.3 317 572.7 302 552.2 321.5C531.7 341 511.3 395 491 432.5C470.7 470 450.3 491 429.8 480.5C409.3 470 388.7 428 368.2 410C347.7 392 327.3 398 306.8 395C286.3 392 265.7 380 245.2 395C224.7 410 204.3 452 184 447.5C163.7 443 143.3 392 122.8 374C102.3 356 81.7 371 61.2 368C40.7 365 20.3 344 10.2 333.5L0 323Z" fill="#1b781f"></path><path d="M0 901L10.2 901C20.3 901 40.7 901 61.2 901C81.7 901 102.3 901 122.8 901C143.3 901 163.7 901 184 901C204.3 901 224.7 901 245.2 901C265.7 901 286.3 901 306.8 901C327.3 901 347.7 901 368.2 901C388.7 901 409.3 901 429.8 901C450.3 901 470.7 901 491 901C511.3 901 531.7 901 552.2 901C572.7 901 593.3 901 613.8 901C634.3 901 654.7 901 664.8 901L675 901L675 512L664.8 524C654.7 536 634.3 560 613.8 588.5C593.3 617 572.7 650 552.2 674C531.7 698 511.3 713 491 702.5C470.7 692 450.3 656 429.8 645.5C409.3 635 388.7 650 368.2 641C347.7 632 327.3 599 306.8 572C286.3 545 265.7 524 245.2 554C224.7 584 204.3 665 184 671C163.7 677 143.3 608 122.8 608C102.3 608 81.7 677 61.2 674C40.7 671 20.3 596 10.2 558.5L0 521Z" fill="#15661c"></path></svg>